<?xml version="1.0" encoding="utf-8"?>
<!-- Generator: Adobe Illustrator 27.0.0, SVG Export Plug-In . SVG Version: 6.00 Build 0)  -->
<svg version="1.1" id="Layer_1" xmlns="http://www.w3.org/2000/svg" xmlns:xlink="http://www.w3.org/1999/xlink" x="0px" y="0px"
	 viewBox="0 0 456.6 87" style="enable-background:new 0 0 456.6 87;" xml:space="preserve">
<style type="text/css">
	.st0{fill:#B8EDA6;}
	.st1{fill:#051B33;}
</style>
<image style="overflow:visible;" width="88" height="87" xlink:href="B498E71133B76E79.png"  transform="matrix(1 0 0 1 0 -1)">
</image>
<rect x="534" y="436" class="st0" width="28" height="9"/>
<path id="paw" class="st1" d="M40.9,30.4c0,1.3-0.2,2.6-0.6,3.8s-1.1,2.2-2.1,3.1s-2.2,1.3-3.5,1.3c-1.7,0-3.4-0.7-4.6-1.9
	c-1.4-1.2-2.4-2.8-3.1-4.5c-0.6-1.6-1-3.3-1-5c0-1.3,0.2-2.6,0.6-3.8c0.4-1.2,1.1-2.2,2.1-3.1c1-0.9,2.3-1.3,3.6-1.3
	c1.7,0,3.4,0.7,4.6,1.9c1.3,1.2,2.4,2.8,3,4.5C40.5,27,40.9,28.7,40.9,30.4L40.9,30.4z M29.5,46.4c0,1.6-0.4,3.3-1.4,4.6
	c-0.9,1.3-2.4,2-3.9,2c-1.7,0-3.4-0.7-4.7-1.8c-1.4-1.2-2.6-2.7-3.3-4.4c-0.7-1.6-1.1-3.3-1.2-5c0-1.6,0.4-3.3,1.4-4.6
	c0.9-1.3,2.4-2,4-2c1.7,0,3.4,0.7,4.7,1.8c1.4,1.2,2.6,2.7,3.3,4.4C29.1,43,29.5,44.7,29.5,46.4L29.5,46.4z M42.6,45.5
	c2.6,0,5.4,1.1,8.5,3.2c3,2.1,5.6,4.8,7.6,7.9c2,3.1,3,5.9,3,8.4c0,0.9-0.2,1.8-0.6,2.5c-0.4,0.7-0.9,1.2-1.6,1.5
	c-0.7,0.3-1.4,0.5-2.1,0.7c-0.8,0.1-1.7,0.2-2.5,0.2c-2.1-0.1-4.2-0.7-6.2-1.5c-1.9-0.8-4-1.3-6.1-1.5c-2.2,0.2-4.4,0.7-6.4,1.5
	c-2.1,0.8-4.4,1.3-6.6,1.5c-4.1,0-6.1-1.6-6.1-4.8c0.1-2.2,0.7-4.4,1.9-6.4c1.2-2.3,2.8-4.5,4.6-6.4s3.9-3.5,6.2-4.9
	C38.1,46.3,40.3,45.6,42.6,45.5L42.6,45.5L42.6,45.5z M50.5,38.5c-1.3,0-2.5-0.4-3.5-1.3c-1-0.8-1.7-1.9-2.1-3.1
	c-0.4-1.2-0.6-2.5-0.6-3.8c0-1.7,0.4-3.4,1-5c0.7-1.7,1.7-3.2,3-4.5c1.3-1.1,2.9-1.8,4.7-1.8c1.3,0,2.5,0.4,3.5,1.3
	c1,0.8,1.7,1.9,2.1,3.1c0.4,1.2,0.6,2.5,0.6,3.8c0,1.7-0.4,3.4-1,5c-0.7,1.7-1.7,3.2-3,4.5C53.9,37.8,52.2,38.5,50.5,38.5L50.5,38.5
	L50.5,38.5z M64.9,35.1c1.6-0.1,3.1,0.7,4,2c0.9,1.4,1.4,3,1.4,4.6c-0.1,3.6-1.7,7.1-4.5,9.5c-1.3,1.2-3,1.8-4.7,1.8
	c-1.6,0.1-3.1-0.7-4-2c-0.9-1.4-1.4-3-1.4-4.6c0.1-3.7,1.7-7.1,4.5-9.5C61.5,35.8,63.1,35.1,64.9,35.1L64.9,35.1z"/>
</svg>
